<svg width="64" height="64" viewBox="0 0 64 64" fill="none" xmlns="http://www.w3.org/2000/svg">
<path d="M58 64H6C2.68629 64 0 61.3137 0 58V6C0 2.68629 2.68629 0 6 0H58C61.3137 0 64 2.68629 64 6V58C64 61.3137 61.3137 64 58 64Z" fill="#C4C4C4"/>
<path d="M43 50C48 55 54.6791 49 49 43C44.1692 37.8962 38.3847 31.5641 38.3847 31.5641C38.3847 31.5641 46.4495 23.6629 49.986 19.8055C54.1116 15.3055 49.6116 8.80549 44.1116 13.8055C39.1747 18.2937 31.9503 25.8055 31.9503 25.8055C31.9503 25.8055 23.1116 15.8055 21.1116 13.8055C16.6116 9.3056 10.6115 15.3055 15.1116 19.8055C18.1116 22.8055 26.1116 31.5641 26.1116 31.5641C26.1116 31.5641 18.6117 39 15.1116 43C9.42419 49.5 17.0164 55 21.5996 50C27.0996 44 31.9503 37.8055 31.9503 37.8055C31.9503 37.8055 38.0842 45.0842 43 50Z" fill="#C4C4C4" stroke="black" stroke-width="2" stroke-linecap="round"/>
</svg>
