<svg width="64" height="64" viewBox="0 0 64 64" fill="none" xmlns="http://www.w3.org/2000/svg">
<path d="M42.9189 50C47.9189 55 54.5979 49 48.9189 43C44.088 37.8962 38.3036 31.5641 38.3036 31.5641C38.3036 31.5641 46.3684 23.6629 49.9049 19.8055C54.0305 15.3055 49.5305 8.80549 44.0305 13.8055C39.0936 18.2937 31.8692 25.8055 31.8692 25.8055C31.8692 25.8055 23.0305 15.8055 21.0305 13.8055C16.5305 9.3056 10.5304 15.3055 15.0305 19.8055C18.0305 22.8055 26.0305 31.5641 26.0305 31.5641C26.0305 31.5641 18.5305 39 15.0305 43C9.34307 49.5 16.9352 55 21.5185 50C27.0185 44 31.8692 37.8055 31.8692 37.8055C31.8692 37.8055 38.0031 45.0842 42.9189 50Z" stroke="black" stroke-width="2" stroke-linecap="round"/>
</svg>
