<svg width="64" height="64" viewBox="0 0 64 64" fill="none" xmlns="http://www.w3.org/2000/svg">
<rect width="64" height="64" fill="#B9B9B9"/>
<path d="M37.4959 14.4594L36.9024 13.6546L36.8722 13.6768L36.8438 13.7013L37.4959 14.4594ZM37.4959 49.4261L38.1253 48.649L37.4959 49.4261ZM43.5933 43.4594L44.2715 42.7246L43.5933 43.4594ZM31.3606 33.7666L30.6447 34.4647L30.6447 34.4647L31.3606 33.7666ZM43.1368 20.4348L43.7743 21.2052L43.1368 20.4348ZM19.9046 37.1448C21.3579 38.525 23.9537 40.4497 26.9594 42.6663C29.9939 44.9041 33.5018 47.4784 36.8666 50.2033L38.1253 48.649C34.7186 45.8902 31.172 43.2879 28.1464 41.0567C25.0921 38.8042 22.6222 36.9676 21.2818 35.6946L19.9046 37.1448ZM36.8666 50.2033C38.3286 51.3872 39.8545 51.8837 41.2766 51.7991C42.6916 51.715 43.9152 51.0595 44.7715 50.1026C46.4911 48.1811 46.746 45.0087 44.2715 42.7246L42.915 44.1942C44.5237 45.6792 44.3306 47.5962 43.2812 48.7689C42.753 49.3591 42.0117 49.7519 41.1578 49.8026C40.3111 49.853 39.264 49.5711 38.1253 48.649L36.8666 50.2033ZM44.2715 42.7246C42.5512 41.1366 39.8113 39.0532 37.3657 37.2119C36.1324 36.2834 34.9708 35.4143 34.0244 34.6826C33.0586 33.936 32.3813 33.3809 32.0766 33.0684L30.6447 34.4647C31.0655 34.8963 31.8611 35.5381 32.8012 36.2649C33.7608 37.0068 34.9382 37.8878 36.1627 38.8097C38.6327 40.6693 41.2836 42.6883 42.915 44.1942L44.2715 42.7246ZM43.7743 21.2052C46.049 19.3231 45.9937 16.1808 44.5981 14.196C43.8804 13.1753 42.7758 12.3988 41.3853 12.227C39.996 12.0553 38.4628 12.5037 36.9024 13.6546L38.0895 15.2642C39.3495 14.3348 40.3811 14.1181 41.1401 14.2119C41.898 14.3055 42.5252 14.725 42.9621 15.3464C43.8756 16.6456 43.8204 18.5712 42.4993 19.6643L43.7743 21.2052ZM37.4959 14.4594C36.8438 13.7013 36.8438 13.7013 36.8436 13.7014C36.8435 13.7015 36.8433 13.7017 36.8431 13.7019C36.8426 13.7023 36.8419 13.7029 36.841 13.7037C36.8392 13.7053 36.8364 13.7077 36.8327 13.7108C36.8253 13.7172 36.8144 13.7266 36.7999 13.7391C36.7709 13.764 36.7279 13.801 36.6718 13.8493C36.5595 13.946 36.3946 14.0879 36.1842 14.2691C35.7634 14.6315 35.1605 15.1511 34.4319 15.7797C32.9747 17.0369 31.0146 18.7305 29.0031 20.4759C25.0058 23.9445 20.7361 27.6773 19.8829 28.5384L21.3035 29.9461C22.0875 29.1549 26.2692 25.4963 30.3139 21.9865C32.3235 20.2427 34.2821 18.5504 35.7384 17.294C36.4665 16.6658 37.069 16.1466 37.4894 15.7845C37.6996 15.6035 37.8643 15.4617 37.9764 15.3652C38.0325 15.3169 38.0754 15.28 38.1043 15.2551C38.1187 15.2427 38.1297 15.2333 38.137 15.227C38.1407 15.2238 38.1434 15.2215 38.1453 15.2199C38.1462 15.2191 38.1469 15.2185 38.1473 15.2181C38.1476 15.2179 38.1477 15.2178 38.1479 15.2177C38.148 15.2176 38.148 15.2175 37.4959 14.4594ZM19.8829 28.5384C18.9596 29.4701 18.1158 30.7975 17.9382 32.3413C17.7541 33.9405 18.3034 35.6242 19.9046 37.1448L21.2818 35.6946C20.0893 34.5621 19.82 33.4831 19.925 32.57C20.0365 31.6014 20.5896 30.6666 21.3035 29.9461L19.8829 28.5384ZM32.0766 33.0684C31.7528 32.7364 31.5933 32.513 31.519 32.3691C31.4843 32.3021 31.4745 32.2643 31.4718 32.2507C31.4704 32.2439 31.4704 32.2412 31.4704 32.2417C31.4704 32.2418 31.4704 32.2421 31.4704 32.2426C31.4703 32.2431 31.4703 32.2434 31.4703 32.2433C31.4703 32.2432 31.4704 32.2424 31.4708 32.2409C31.4711 32.2394 31.4718 32.2368 31.4729 32.2332C31.4751 32.2259 31.4794 32.2137 31.4875 32.1961C31.5044 32.1592 31.5347 32.1051 31.5887 32.028C31.7062 31.8603 31.8683 31.6753 32.1164 31.389L30.6049 30.0792C30.3894 30.3279 30.1421 30.6072 29.9506 30.8806C29.7534 31.1621 29.5516 31.5229 29.4896 31.9665C29.3576 32.911 29.9103 33.7117 30.6447 34.4647L32.0766 33.0684ZM32.1164 31.389C32.5229 30.9198 34.0992 29.4766 36.3025 27.5513C38.4729 25.6548 41.1784 23.3532 43.7743 21.2052L42.4993 19.6643C39.8903 21.8231 37.1712 24.1363 34.9865 26.0452C32.8348 27.9254 31.1255 29.4785 30.6049 30.0792L32.1164 31.389Z" fill="black"/>
</svg>
