<svg width="64" height="65" viewBox="0 0 64 65" fill="none" xmlns="http://www.w3.org/2000/svg">
<rect y="0.814056" width="64" height="64" rx="6" fill="#B9B9B9"/>
<path d="M48.8814 55.6786H10.3364V11.9495C10.3364 10.8449 11.2319 9.94951 12.3364 9.94951H26.1075C27.212 9.94951 28.1075 10.8449 28.1075 11.9495V12.8025C28.1075 13.907 29.0029 14.8025 30.1075 14.8025H48.4292C49.5337 14.8025 50.4292 15.6979 50.4292 16.8025V22.2568H56.506C57.8143 22.2568 58.7699 23.4935 58.4417 24.7599L50.8182 54.1775C50.5896 55.0597 49.7927 55.6786 48.8814 55.6786Z" fill="#B9B9B9"/>
<path d="M10.3364 55.6786H48.8814C49.7927 55.6786 50.5896 55.0597 50.8182 54.1775C53.7467 42.8771 55.577 35.8144 58.4417 24.7599C58.7699 23.4935 57.8143 22.2568 56.506 22.2568H50.4292M10.3364 55.6786V11.9495C10.3364 10.8449 11.2319 9.94951 12.3364 9.94951H26.1075C27.212 9.94951 28.1075 10.8449 28.1075 11.9495V12.8025C28.1075 13.907 29.0029 14.8025 30.1075 14.8025H48.4292C49.5338 14.8025 50.4292 15.6979 50.4292 16.8025V22.2568M10.3364 55.6786C13.4019 43.1447 15.1741 35.8988 18.1369 23.7847C18.3559 22.8895 19.1588 22.2568 20.0804 22.2568H50.4292" stroke="black" stroke-width="3"/>
</svg>
