<svg width="64" height="64" viewBox="0 0 64 64" fill="none" xmlns="http://www.w3.org/2000/svg">
<path fill-rule="evenodd" clip-rule="evenodd" d="M14.7886 11.2093C13.9334 11.2093 13.273 12.2744 13.273 12.9158V42.1349L17.61 22.8653C17.9525 21.3436 19.2085 20.2657 20.6551 20.2657H46.4878V16.418C46.4878 16.1493 46.2873 15.9314 46.0401 15.9314H29.6338C27.9029 15.9314 26.4998 14.4067 26.4998 12.5258V11.6958C26.4998 11.4271 26.2993 11.2093 26.052 11.2093H14.7886ZM49.1742 20.2657V16.418C49.1742 14.5371 47.771 13.0123 46.0401 13.0123H29.6338C29.3866 13.0123 29.1861 12.7945 29.1861 12.5258V11.6958C29.1861 9.81494 27.7829 8.29016 26.052 8.29016H14.7886C13.0577 8.29016 10.589 11.0349 10.589 12.9158C10.589 12.9158 10.55 52.9975 10.5866 53.5849C10.6231 54.1723 11.1355 55.6969 12.3227 55.7059C13.5099 55.7148 43.7845 55.7059 43.7845 55.7059C45.215 55.7059 49.6916 54.0414 50.3679 50.0282L56.3061 24.527C56.82 22.372 55.3239 20.2657 53.2725 20.2657H49.1742ZM13.6411 52.7867C13.6411 52.7867 43.2594 52.917 43.7845 52.7867C45.6333 52.3279 46.899 51.0125 47.437 49.6675C47.7075 48.9911 53.7056 23.7948 53.7056 23.7948C53.7794 23.4853 53.564 23.1849 53.2725 23.1849H20.6551C20.4513 23.1849 20.2691 23.3384 20.2195 23.5588L13.6411 52.7867Z" fill="black"/>
</svg>
