<svg width="64" height="64" viewBox="0 0 64 64" fill="none" xmlns="http://www.w3.org/2000/svg">
<rect width="64" height="64" rx="6" fill="#B9B9B9"/>
<path d="M50.0464 54.7289H13.9536C12.849 54.7289 11.9536 53.8335 11.9536 52.7289V10.9998C11.9536 9.89522 12.849 8.99979 13.9536 8.99979H39.6939L52.0464 23.0197V52.7289C52.0464 53.8335 51.1509 54.7289 50.0464 54.7289Z" fill="#B9B9B9"/>
<path d="M39.6939 8.99979H13.9536C12.849 8.99979 11.9536 9.89522 11.9536 10.9998V52.7289C11.9536 53.8335 12.849 54.7289 13.9536 54.7289H50.0464C51.1509 54.7289 52.0464 53.8335 52.0464 52.7289V23.0197M39.6939 8.99979L52.0464 23.0197M39.6939 8.99979V21.0197C39.6939 22.1243 40.5894 23.0197 41.6939 23.0197H52.0464" stroke="black" stroke-width="3" stroke-linejoin="bevel"/>
</svg>
