<svg width="64" height="64" viewBox="0 0 64 64" fill="none" xmlns="http://www.w3.org/2000/svg">
    <style>
        svg.active path#circle {
            fill: #8b0000;
        }

        svg.active path#tail {
            fill: #a31a1a;
        }

        svg:not(.active):hover path#circle,
        svg:not(.active):hover path#tail {
            fill: #d73e3e;
        }
    </style>
    <path id="tail" d="M21 37C21 37 35.0377 25.0427 38.1599 20.9938C39.1535 19.7053 36.8818 18.408 32.4106 16.9938C27.9393 15.5796 41.2503 10.664 46.6152 8.04833C48.0655 7.34129 35.0708 14.6113 38.1599 15.4938C43.4106 16.9938 49.6866 17.4938 48 20.9938C44.8648 27.5 38.1599 46 38.1599 46" stroke="black" stroke-width="2" stroke-linecap="round"/>
    <path id="circle" d="M38 44.5C38 50.3413 33.4814 55 28 55C22.5186 55 18 50.3413 18 44.5C18 38.6587 22.5186 34 28 34C33.4814 34 38 38.6587 38 44.5Z" stroke="black" stroke-width="2"/>
</svg>
