<svg width="65" height="64" viewBox="0 0 65 64" fill="none" xmlns="http://www.w3.org/2000/svg">
<rect width="65" height="64" fill="#E5E5E5"/>
<rect width="492" height="465" transform="translate(-337 -112)" fill="white"/>
<path d="M0.0520325 6.00001C0.0520325 2.68629 2.73832 0 6.05203 0H58.052C61.3657 0 64.052 2.68629 64.052 6.00001V58C64.052 61.3137 61.3657 64 58.052 64H6.05203C2.73832 64 0.0520325 61.3137 0.0520325 58V6.00001Z" fill="#B9B9B9"/>
<mask id="path-2-inside-1_0_1" fill="white">
<path d="M23.2812 6.80942L24.5815 10.9686H28.7894L25.3852 13.5391L26.6855 17.6983L23.2812 15.1278L19.877 17.6983L21.1773 13.5391L17.773 10.9686H21.9809L23.2812 6.80942Z"/>
</mask>
<path d="M23.2812 6.80942L24.5815 10.9686H28.7894L25.3852 13.5391L26.6855 17.6983L23.2812 15.1278L19.877 17.6983L21.1773 13.5391L17.773 10.9686H21.9809L23.2812 6.80942Z" fill="#C4C4C4"/>
<path d="M23.2812 6.80942L32.8257 3.8255L23.2812 -26.7036L13.7368 3.8255L23.2812 6.80942ZM24.5815 10.9686L15.0371 13.9525L17.2306 20.9686H24.5815V10.9686ZM28.7894 10.9686L34.8154 18.9491L58.6276 0.968617H28.7894V10.9686ZM25.3852 13.5391L19.3592 5.5587L13.7395 9.80207L15.8407 16.5231L25.3852 13.5391ZM26.6855 17.6983L20.6595 25.6788L45.5285 44.4572L36.2299 14.7144L26.6855 17.6983ZM23.2812 15.1278L29.3072 7.14737L23.2812 2.59719L17.2552 7.14737L23.2812 15.1278ZM19.877 17.6983L10.3325 14.7144L1.03392 44.4572L25.903 25.6788L19.877 17.6983ZM21.1773 13.5391L30.7217 16.5231L32.8229 9.80207L27.2033 5.5587L21.1773 13.5391ZM17.773 10.9686V0.968617H-12.0652L11.747 18.9491L17.773 10.9686ZM21.9809 10.9686V20.9686H29.3319L31.5253 13.9525L21.9809 10.9686ZM13.7368 9.79333L15.0371 13.9525L34.126 7.9847L32.8257 3.8255L13.7368 9.79333ZM24.5815 20.9686H28.7894V0.968617H24.5815V20.9686ZM22.7634 2.98817L19.3592 5.5587L31.4111 21.5196L34.8154 18.9491L22.7634 2.98817ZM15.8407 16.5231L17.141 20.6823L36.2299 14.7144L34.9296 10.5552L15.8407 16.5231ZM32.7114 9.7179L29.3072 7.14737L17.2552 23.1083L20.6595 25.6788L32.7114 9.7179ZM17.2552 7.14737L13.851 9.7179L25.903 25.6788L29.3072 23.1083L17.2552 7.14737ZM29.4214 20.6823L30.7217 16.5231L11.6328 10.5552L10.3325 14.7144L29.4214 20.6823ZM27.2033 5.5587L23.799 2.98817L11.747 18.9491L15.1513 21.5196L27.2033 5.5587ZM17.773 20.9686H21.9809V0.968617H17.773V20.9686ZM31.5253 13.9525L32.8257 9.79333L13.7368 3.8255L12.4365 7.9847L31.5253 13.9525Z" fill="black" mask="url(#path-2-inside-1_0_1)"/>
<path d="M26.9312 18.8479C32.7996 24.4164 36.0115 35.1182 34.5559 38.7432L34.1542 39.6878L33.6657 40.5563C33.5922 40.6871 33.5041 40.8091 33.4033 40.9202L32.6992 41.6958L31.774 42.4773C31.6683 42.5666 31.5537 42.6446 31.4319 42.7102L31.0348 42.9241C30.9463 42.9718 30.8542 43.0128 30.7595 43.0466L29.9318 43.3425L29.3328 43.5254C29.1436 43.5832 28.9468 43.6125 28.7489 43.6125H27.9632L27.0997 43.4995C26.9883 43.4849 26.8784 43.4609 26.7711 43.4279L25.367 42.9958L24.5855 42.6752C24.4823 42.6329 24.3828 42.5819 24.288 42.523L23.6029 42.0967C23.4898 42.0264 23.384 41.9448 23.2871 41.8534L22.8936 41.4823C22.7554 41.3519 22.6365 41.2025 22.5404 41.0386L22.176 40.4167L21.6931 39.5182C21.632 39.4044 21.5819 39.2849 21.5438 39.1614L21.3193 38.4342C21.2603 38.2431 21.2303 38.0442 21.2303 37.8442L21.2302 37.0182C21.2302 36.8733 21.246 36.7289 21.2772 36.5875L21.5518 35.3418C21.5846 35.1933 21.6342 35.0489 21.6997 34.9116L22.091 34.0911C22.1475 33.9725 22.2157 33.8598 22.2944 33.7545L22.8044 33.0723L23.4987 32.2671C23.5838 32.1683 23.6785 32.0781 23.7812 31.9978L24.7982 31.2024C24.9484 31.0849 25.1147 30.9895 25.2919 30.9191L26.2906 30.5223C26.4163 30.4724 26.5468 30.4353 26.68 30.4117L27.7901 30.215C27.9053 30.1945 28.0221 30.1843 28.1391 30.1843H29.1906C29.323 30.1843 29.4551 30.1974 29.585 30.2235L30.469 30.4014C30.6205 30.4318 30.768 30.4798 30.9084 30.5442L31.9574 31.0253L33.2983 31.5019L35.8133 32.6296C35.945 32.6886 36.07 32.7618 36.1859 32.8477L37.4028 33.7496L38.6776 34.9628L39.9524 36.2676L40.8857 37.4252C40.9715 37.5316 41.0462 37.6466 41.1085 37.7683L41.8222 39.1607C41.8857 39.2846 41.9361 39.4148 41.9726 39.5492L42.5551 41.6958L42.8374 43.1543C42.8616 43.2795 42.8738 43.4068 42.8738 43.5343V45.4337C42.8738 45.5513 42.8635 45.6686 42.8428 45.7843L42.5551 47.4001L41.9177 49.525L41.0681 51.8823C41.0326 51.9808 40.9894 52.0764 40.9389 52.1681L40.0789 53.7315C39.9949 53.8842 39.8914 54.0252 39.7709 54.151L38.2526 55.7361" stroke="black" stroke-width="3" stroke-linecap="round" stroke-linejoin="round"/>
</svg>
