<svg width="64" height="64" viewBox="0 0 64 64" fill="none" xmlns="http://www.w3.org/2000/svg">
<rect width="64" height="64" transform="translate(64 64) rotate(-180)" fill="#B9B9B9"/>
<path d="M26.5041 49.5406L27.0976 50.3454L27.1278 50.3232L27.1562 50.2987L26.5041 49.5406ZM26.5041 14.5739L25.8747 15.351L26.5041 14.5739ZM20.4067 20.5406L19.7285 21.2754L20.4067 20.5406ZM32.6394 30.2334L33.3553 29.5353L33.3553 29.5353L32.6394 30.2334ZM20.8632 43.5652L20.2257 42.7948L20.8632 43.5652ZM44.0954 26.8552C42.6421 25.475 40.0463 23.5502 37.0406 21.3337C34.0061 19.0959 30.4982 16.5216 27.1334 13.7967L25.8747 15.351C29.2814 18.1098 32.828 20.7121 35.8536 22.9433C38.9079 25.1957 41.3778 27.0324 42.7182 28.3054L44.0954 26.8552ZM27.1334 13.7967C25.6714 12.6128 24.1455 12.1163 22.7234 12.2009C21.3084 12.285 20.0848 12.9405 19.2285 13.8974C17.5089 15.8189 17.254 18.9913 19.7285 21.2754L21.085 19.8058C19.4763 18.3208 19.6694 16.4038 20.7188 15.2311C21.247 14.6409 21.9883 14.2481 22.8422 14.1973C23.6889 14.147 24.736 14.4289 25.8747 15.351L27.1334 13.7967ZM19.7285 21.2754C21.4488 22.8634 24.1887 24.9468 26.6343 26.7881C27.8676 27.7166 29.0292 28.5857 29.9756 29.3174C30.9414 30.064 31.6187 30.6191 31.9234 30.9316L33.3553 29.5353C32.9345 29.1037 32.1389 28.4619 31.1988 27.7351C30.2392 26.9932 29.0618 26.1122 27.8373 25.1903C25.3673 23.3307 22.7164 21.3117 21.085 19.8058L19.7285 21.2754ZM20.2257 42.7948C17.951 44.6769 18.0063 47.8192 19.4019 49.804C20.1196 50.8247 21.2242 51.6012 22.6147 51.773C24.004 51.9447 25.5372 51.4963 27.0976 50.3454L25.9105 48.7358C24.6505 49.6652 23.6189 49.8819 22.8599 49.7881C22.102 49.6945 21.4748 49.275 21.0379 48.6536C20.1244 47.3544 20.1796 45.4288 21.5007 44.3357L20.2257 42.7948ZM26.5041 49.5406C27.1562 50.2987 27.1562 50.2987 27.1564 50.2986C27.1565 50.2985 27.1567 50.2983 27.1569 50.2981C27.1574 50.2977 27.1581 50.2971 27.159 50.2963C27.1608 50.2947 27.1636 50.2923 27.1673 50.2892C27.1747 50.2828 27.1856 50.2734 27.2001 50.2609C27.2291 50.236 27.2721 50.199 27.3282 50.1507C27.4405 50.054 27.6054 49.9121 27.8158 49.7309C28.2366 49.3685 28.8395 48.8489 29.5681 48.2203C31.0253 46.9631 32.9854 45.2695 34.9969 43.5241C38.9942 40.0555 43.2639 36.3227 44.1171 35.4616L42.6965 34.0539C41.9125 34.8451 37.7308 38.5037 33.6861 42.0135C31.6765 43.7573 29.7179 45.4496 28.2616 46.706C27.5335 47.3342 26.931 47.8534 26.5106 48.2155C26.3004 48.3965 26.1357 48.5383 26.0236 48.6348C25.9675 48.6831 25.9246 48.72 25.8957 48.7449C25.8813 48.7573 25.8703 48.7667 25.863 48.773C25.8593 48.7762 25.8566 48.7785 25.8547 48.7801C25.8538 48.7809 25.8531 48.7815 25.8527 48.7819C25.8524 48.7821 25.8523 48.7822 25.8521 48.7823C25.852 48.7824 25.852 48.7825 26.5041 49.5406ZM44.1171 35.4616C45.0404 34.5299 45.8842 33.2025 46.0618 31.6587C46.2459 30.0595 45.6966 28.3758 44.0954 26.8552L42.7182 28.3054C43.9107 29.4379 44.18 30.5169 44.075 31.43C43.9635 32.3986 43.4104 33.3334 42.6965 34.0539L44.1171 35.4616ZM31.9234 30.9316C32.2472 31.2636 32.4067 31.487 32.481 31.6309C32.5157 31.6979 32.5255 31.7357 32.5282 31.7493C32.5296 31.7561 32.5296 31.7588 32.5296 31.7583C32.5296 31.7582 32.5296 31.7579 32.5296 31.7574C32.5297 31.7569 32.5297 31.7566 32.5297 31.7567C32.5297 31.7568 32.5296 31.7575 32.5292 31.7591C32.5289 31.7606 32.5282 31.7632 32.5271 31.7668C32.5249 31.7741 32.5206 31.7863 32.5125 31.8039C32.4956 31.8408 32.4653 31.8949 32.4113 31.972C32.2938 32.1397 32.1317 32.3247 31.8836 32.611L33.3951 33.9208C33.6106 33.6721 33.8579 33.3928 34.0494 33.1194C34.2466 32.8379 34.4484 32.4771 34.5104 32.0335C34.6424 31.089 34.0897 30.2883 33.3553 29.5353L31.9234 30.9316ZM31.8836 32.611C31.4771 33.0802 29.9008 34.5234 27.6975 36.4487C25.5271 38.3452 22.8216 40.6468 20.2257 42.7948L21.5007 44.3357C24.1097 42.1769 26.8288 39.8637 29.0135 37.9547C31.1652 36.0746 32.8745 34.5215 33.3951 33.9208L31.8836 32.611Z" fill="black"/>
</svg>
