<svg width="64" height="64" viewBox="0 0 64 64" fill="none" xmlns="http://www.w3.org/2000/svg">
<path fill-rule="evenodd" clip-rule="evenodd" d="M20.5884 39.423C20.5884 38.5946 21.26 37.923 22.0884 37.923H43.1004C43.9288 37.923 44.6004 38.5946 44.6004 39.423V54.666C44.6004 55.4944 43.9288 56.166 43.1004 56.166H22.0884C21.26 56.166 20.5884 55.4944 20.5884 54.666V39.423ZM23.5884 40.923V53.166H26.8647V48.8459H29.8647V53.166H41.6004V40.923H23.5884Z" fill="black"/>
<path d="M20.5884 9.18631C20.5884 11.3025 20.5884 9.80703 20.5884 10.6355L20.5884 17.6282C20.5884 18.4567 20.5884 27.3785 20.5884 27.3785H44.6004L44.6004 18.9417L44.6004 10.6355C44.6004 9.80703 44.6004 10.7939 44.6004 9.13545" stroke="black" stroke-width="3" stroke-linecap="round" stroke-linejoin="round"/>
<path d="M46.0464 9.13545L17.9536 9.13545C14.6399 9.13545 11.9536 11.8217 11.9536 15.1355L11.9536 42.9007C11.9536 44.3139 12.4525 45.6818 13.3622 46.7632L18.3792 52.727C19.5192 54.0822 21.1997 54.8645 22.9706 54.8645L46.0464 54.8645C49.3601 54.8645 52.0464 52.1783 52.0464 48.8646L52.0464 15.1355C52.0464 11.8217 49.3601 9.13545 46.0464 9.13545Z" stroke="black" stroke-width="3" stroke-linejoin="bevel"/>
</svg>
