<svg width="65" height="64" viewBox="0 0 65 64" fill="none" xmlns="http://www.w3.org/2000/svg">
<rect x="0.747604" width="64" height="64" rx="6" fill="#B9B9B9"/>
<path d="M52.794 11.1354V52.8645C52.794 53.9691 51.8986 54.8645 50.794 54.8645H22.4992C21.9561 54.8645 21.4363 54.6437 21.0594 54.2526L13.2614 46.1641C12.902 45.7913 12.7012 45.2937 12.7012 44.776V11.1354C12.7012 10.0309 13.5967 9.13544 14.7012 9.13544H21.6493H42.7124H50.794C51.8986 9.13544 52.794 10.0309 52.794 11.1354Z" fill="#B9B9B9"/>
<path d="M21.6493 9.13544H14.7012C13.5967 9.13544 12.7012 10.0309 12.7012 11.1354V44.776C12.7012 45.2937 12.902 45.7913 13.2614 46.1641L21.0594 54.2526C21.4363 54.6436 21.9561 54.8645 22.4992 54.8645H50.794C51.8986 54.8645 52.794 53.9691 52.794 52.8645V11.1354C52.794 10.0309 51.8986 9.13544 50.794 9.13544H42.7124M21.6493 9.13544V27.2314C21.6493 28.336 22.5447 29.2314 23.6493 29.2314H40.7124C41.8169 29.2314 42.7124 28.336 42.7124 27.2314V10.9398V9.13544M21.6493 9.13544H42.7124" stroke="black" stroke-width="3"/>
<path d="M43.821 53.6203V38.3773H22.4807V53.6203M28.8551 53.6203V47.8002" stroke="black" stroke-width="3" stroke-linejoin="round"/>
</svg>
